<svg fill="none" height="101" viewBox="0 0 673 101" width="673" xmlns="http://www.w3.org/2000/svg" xmlns:xlink="http://www.w3.org/1999/xlink"><linearGradient id="a" gradientUnits="userSpaceOnUse" x1="440.5" x2="445.245" y1="88.5217" y2="40.0832"><stop offset=".399576" stop-color="#33a3ff"/><stop offset=".837496" stop-color="#0c6"/></linearGradient><path d="m100 40.7822v41.2178h-82v-41.2178l41-40.7822zm-73 3.7412v28.4766h64v-28.4766l-32-31.83z" fill="#0c6"/><path d="m9 91.1709h73v9.0001h-82v-41.2179l9-8.9531z" fill="#33a3ff"/><path d="m183.3 42-2.8-12.2c-4.333-1.7333-8.567-2.6-12.7-2.6-4.8 0-9 1.2-12.6 3.6-3.6 2.3333-6.4 5.6333-8.4 9.9-1.933 4.2667-2.9 9.2667-2.9 15 0 5.8 1 10.8 3 15 2.067 4.2 4.967 7.4667 8.7 9.8 3.8 2.2667 8.267 3.4 13.4 3.4 5.933 0 11.633-1.4 17.1-4.2.933 1.1333 1.567 2.4667 1.9 4-2.467 1.6-5.5 2.9-9.1 3.9-3.6.9333-7.2 1.4-10.8 1.4-6.067 0-11.367-1.3667-15.9-4.1-4.467-2.7333-7.967-6.6-10.5-11.6-2.467-5-3.7-10.8667-3.7-17.6 0-6.6667 1.2-12.4667 3.6-17.4 2.467-5 5.9-8.8667 10.3-11.6 4.467-2.8 9.633-4.2 15.5-4.2 2.733 0 5.633.3333 8.7 1 3.133.6667 6.033 1.6 8.7 2.8.4.4667.767.9667 1.1 1.5s.6 1.0333.8 1.5l.2 13c-.4.2667-.933.4-1.6.4-.733 0-1.4-.2333-2-.7zm33.677 46h-21.3c-.2-.5333-.3-1-.3-1.4 0-.5333.2-1.1667.6-1.9l7.8-.8v-58.2h-8.6c-.2-.4667-.3-.9333-.3-1.4 0-.6.2-1.2333.6-1.9l10.9-1.9c1.134.6 2.067 1.3333 2.8 2.2v61h6.8c1.067 0 1.6.4667 1.6 1.4 0 .4-.133 1.1-.4 2.1zm31.118-3.4c3.467 0 6.5-.9 9.1-2.7 2.667-1.8 4.7-4.3333 6.1-7.6 1.467-3.2667 2.2-7.0333 2.2-11.3s-.733-8.0333-2.2-11.3c-1.4-3.2667-3.433-5.8-6.1-7.6-2.6-1.8-5.633-2.7-9.1-2.7-3.466 0-6.533.9-9.2 2.7-2.6 1.8-4.633 4.3333-6.1 7.6-1.4 3.2667-2.1 7.0333-2.1 11.3s.7 8.0333 2.1 11.3c1.467 3.2667 3.5 5.8 6.1 7.6s5.667 2.7 9.2 2.7zm0 4.4c-4.666 0-8.733-1.0667-12.2-3.2-3.4-2.2-6.066-5.2333-8-9.1-1.933-3.9333-2.9-8.5-2.9-13.7s.967-9.7333 2.9-13.6c1.934-3.9333 4.6-6.9667 8-9.1 3.467-2.2 7.534-3.3 12.2-3.3 4.667 0 8.7 1.1 12.1 3.3 3.467 2.1333 6.167 5.1667 8.1 9.1 1.934 3.8667 2.9 8.4 2.9 13.6s-.966 9.7667-2.9 13.7c-1.933 3.8667-4.633 6.9-8.1 9.1-3.4 2.1333-7.433 3.2-12.1 3.2zm85.785-1h-19.3c-.2-.5333-.3-1-.3-1.4 0-.5333.2-1.1667.6-1.9l6.8-.8v-28.4c0-9.4-3.966-14.1-11.9-14.1-3.133 0-6.033.9333-8.7 2.8-2.6 1.8-4.7 4.2333-6.3 7.3-1.6 3-2.4 6.3-2.4 9.9v22.3h5.8c1.067 0 1.6.4667 1.6 1.4 0 .4-.133 1.1-.4 2.1l-.2.8h-19.3c-.2-.5333-.3-1-.3-1.4 0-.5333.2-1.1667.6-1.9l6.8-.8v-41.2h-7.6c-.2-.4667-.3-.9333-.3-1.4 0-.6.2-1.2333.6-1.9l9.9-1.9c1.134.6 2.067 1.3333 2.8 2.2l-.7 10c1.867-4.0667 4.434-7.2 7.7-9.4 3.267-2.2 7.034-3.3 11.3-3.3 5.334 0 9.4 1.6 12.2 4.8 2.8 3.1333 4.2 7.7 4.2 13.7v28.2h5.8c1.067 0 1.6.4667 1.6 1.4 0 .4-.133 1.1-.4 2.1zm46.622-26.1h-33.6v1.1c0 6.4667 1.666 11.6333 5 15.5 3.4 3.8 7.933 5.7 13.6 5.7 2.6 0 5.266-.3667 8-1.1 2.8-.7333 5.066-1.5667 6.8-2.5.533.5333.933 1.1333 1.2 1.8.266.6.433 1.2333.5 1.9-5.534 3.1333-11.334 4.7-17.4 4.7-4.667 0-8.734-1.0667-12.2-3.2-3.467-2.2-6.167-5.2333-8.1-9.1-1.934-3.9333-2.9-8.5-2.9-13.7 0-5.2667.9-9.8333 2.7-13.7 1.866-3.9333 4.5-6.9667 7.9-9.1s7.4-3.2 12-3.2c12.266 0 18.4 7.3 18.4 21.9-.534 1.1333-1.167 2.1333-1.9 3zm-33.2-4.3h29.8c0-10.8-4.367-16.2-13.1-16.2-4.4 0-8.1 1.4667-11.1 4.4-2.934 2.9333-4.8 6.8667-5.6 11.8zm131.204 30.4h-19.3c-.266-.4-.4-.9333-.4-1.6 0-.7333.234-1.4.7-2l6.7-.8v-26.4h-36.2v26.2h5.8c1.067 0 1.6.4667 1.6 1.4 0 .4667-.166 1.2667-.5 2.4l-.2.8h-19.3c-.266-.4-.4-.9333-.4-1.6 0-.7333.234-1.4.7-2l6.7-.8v-55.5h-5.8c-1.066 0-1.6-.4667-1.6-1.4 0-.4667.167-1.2667.5-2.4l.2-.8h19.3c.267.4.4.9333.4 1.6 0 .7333-.233 1.4-.7 2l-6.7.8v24.7h36.2v-24.5h-5.8c-1.066 0-1.6-.4667-1.6-1.4 0-.4667.167-1.2667.5-2.4l.2-.8h19.3c.267.4.4.9333.4 1.6 0 .7333-.233 1.4-.7 2l-6.7.8v55.5h5.8c1.067 0 1.6.4667 1.6 1.4 0 .4667-.166 1.2667-.5 2.4zm33.164-3.4c3.466 0 6.5-.9 9.1-2.7 2.666-1.8 4.7-4.3333 6.1-7.6 1.466-3.2667 2.2-7.0333 2.2-11.3s-.734-8.0333-2.2-11.3c-1.4-3.2667-3.434-5.8-6.1-7.6-2.6-1.8-5.634-2.7-9.1-2.7-3.467 0-6.534.9-9.2 2.7-2.6 1.8-4.634 4.3333-6.1 7.6-1.4 3.2667-2.1 7.0333-2.1 11.3s.7 8.0333 2.1 11.3c1.466 3.2667 3.5 5.8 6.1 7.6s5.666 2.7 9.2 2.7zm0 4.4c-4.667 0-8.734-1.0667-12.2-3.2-3.4-2.2-6.067-5.2333-8-9.1-1.934-3.9333-2.9-8.5-2.9-13.7s.966-9.7333 2.9-13.6c1.933-3.9333 4.6-6.9667 8-9.1 3.466-2.2 7.533-3.3 12.2-3.3 4.666 0 8.7 1.1 12.1 3.3 3.466 2.1333 6.166 5.1667 8.1 9.1 1.933 3.8667 2.9 8.4 2.9 13.6s-.967 9.7667-2.9 13.7c-1.934 3.8667-4.634 6.9-8.1 9.1-3.4 2.1333-7.434 3.2-12.1 3.2zm111.885-1h-19.3c-.2-.5333-.3-1-.3-1.4 0-.5333.2-1.1667.6-1.9l6.8-.8v-28.4c0-9.4-3.334-14.1-10-14.1-2.867 0-5.434.8667-7.7 2.6-2.267 1.6667-4.067 4.0333-5.4 7.1-1.267 3-1.9 6.4333-1.9 10.3v22.3h5.8c1.066 0 1.6.4667 1.6 1.4 0 .4-.134 1.1-.4 2.1l-.2.8h-19.3c-.2-.5333-.3-1-.3-1.4 0-.5333.2-1.1667.6-1.9l6.8-.8v-28.4c0-9.4-3.334-14.1-10-14.1-2.867 0-5.434.8667-7.7 2.6-2.267 1.6667-4.067 4.0333-5.4 7.1-1.267 3-1.9 6.4333-1.9 10.3v22.3h5.8c1.066 0 1.6.4667 1.6 1.4 0 .4-.134 1.1-.4 2.1l-.2.8h-19.3c-.2-.5333-.3-1-.3-1.4 0-.5333.2-1.1667.6-1.9l6.8-.8v-41.2h-7.6c-.2-.4667-.3-.9333-.3-1.4 0-.6.2-1.2333.6-1.9l9.9-1.9c1.133.6 2.066 1.3333 2.8 2.2l-.6 8.4c3.533-7.4 8.966-11.1 16.3-11.1 7.733 0 12.166 3.9333 13.3 11.8 3.666-7.8667 9.333-11.8 17-11.8 4.8 0 8.466 1.6 11 4.8 2.533 3.1333 3.8 7.7 3.8 13.7v28.2h5.8c1.066 0 1.6.4667 1.6 1.4 0 .4-.134 1.1-.4 2.1zm46.595-26.1h-33.6v1.1c0 6.4667 1.667 11.6333 5 15.5 3.4 3.8 7.933 5.7 13.6 5.7 2.6 0 5.267-.3667 8-1.1 2.8-.7333 5.067-1.5667 6.8-2.5.533.5333.933 1.1333 1.2 1.8.267.6.433 1.2333.5 1.9-5.533 3.1333-11.333 4.7-17.4 4.7-4.667 0-8.733-1.0667-12.2-3.2-3.467-2.2-6.167-5.2333-8.1-9.1-1.933-3.9333-2.9-8.5-2.9-13.7 0-5.2667.9-9.8333 2.7-13.7 1.867-3.9333 4.5-6.9667 7.9-9.1s7.4-3.2 12-3.2c12.267 0 18.4 7.3 18.4 21.9-.533 1.1333-1.167 2.1333-1.9 3zm-33.2-4.3h29.8c0-10.8-4.367-16.2-13.1-16.2-4.4 0-8.1 1.4667-11.1 4.4-2.933 2.9333-4.8 6.8667-5.6 11.8z" fill="url(#a)"/></svg>