<svg width="676" height="101" viewBox="0 0 676 101" fill="none" xmlns="http://www.w3.org/2000/svg">
<path d="M100 40.7822V82H18V40.7822L59 0L100 40.7822ZM27 44.5234V73H91V44.5234L59 12.6934L27 44.5234Z" fill="#00CC66"/>
<path d="M9 91.1709H82V100.171H0V58.9531L9 50V91.1709Z" fill="#33A3FF"/>
<path d="M170.5 95.8C165.3 95.8 160.633 94.9333 156.5 93.2C152.367 91.4 148.767 88.8333 145.7 85.5C142.767 82.2333 140.533 78.4 139 74C137.467 69.6 136.7 64.8333 136.7 59.7C136.7 54.2333 137.533 49.3 139.2 44.9C140.933 40.4333 143.3 36.6 146.3 33.4C149.367 30.2 153 27.7333 157.2 26C161.467 24.2 166.233 23.3 171.5 23.3C174.433 23.3 177.267 23.5667 180 24.1C182.733 24.5667 185.3 25.2333 187.7 26.1C190.167 26.9667 192.4 27.9667 194.4 29.1V33.1L190.4 32.4C188.267 31.2 185.6 30.1667 182.4 29.3C179.267 28.4333 175.833 28 172.1 28C165.9 28 160.567 29.3333 156.1 32C151.633 34.6667 148.2 38.4 145.8 43.2C143.4 47.9333 142.2 53.4333 142.2 59.7C142.2 65.7 143.333 71.0667 145.6 75.8C147.867 80.5333 151.167 84.2667 155.5 87C159.833 89.7333 165.067 91.1 171.2 91.1C175.4 91.1 179.133 90.4333 182.4 89.1C185.733 87.7 188.7 85.7667 191.3 83.3C191.5 83.1 191.667 82.9667 191.8 82.9C192 82.8333 192.2 82.8 192.4 82.8C192.667 82.8 192.933 82.9333 193.2 83.2L195.3 85.5C192.433 88.5667 188.967 91.0667 184.9 93C180.833 94.8667 176.033 95.8 170.5 95.8ZM189.6 31.5L194.4 33.1V42.3H191.8C191.467 42.3 191.167 42.2 190.9 42C190.7 41.8 190.567 41.5333 190.5 41.2L189.6 31.5ZM210.106 95V22.1H215.106V95H210.106ZM202.406 95V92.7C202.406 92.3 202.506 92 202.706 91.8C202.906 91.5333 203.173 91.4 203.506 91.4L211.106 90.5L211.706 95H202.406ZM213.506 95L214.106 90.5L221.706 91.4C222.04 91.4 222.306 91.5333 222.506 91.8C222.706 92 222.806 92.3 222.806 92.7V95H213.506ZM211.706 22.1L211.106 26.6L203.506 25.7C203.173 25.6333 202.906 25.5 202.706 25.3C202.506 25.1 202.406 24.8 202.406 24.4V22.1H211.706ZM251.397 44.3C256.264 44.3 260.364 45.4 263.697 47.6C267.097 49.7333 269.664 52.7333 271.397 56.6C273.197 60.4 274.097 64.8667 274.097 70C274.097 75.1333 273.197 79.6333 271.397 83.5C269.664 87.3 267.097 90.2667 263.697 92.4C260.364 94.5333 256.264 95.6 251.397 95.6C246.597 95.6 242.497 94.5333 239.097 92.4C235.697 90.2667 233.097 87.2667 231.297 83.4C229.497 79.5333 228.597 75.0667 228.597 70C228.597 64.9333 229.497 60.4667 231.297 56.6C233.097 52.7333 235.697 49.7333 239.097 47.6C242.497 45.4 246.597 44.3 251.397 44.3ZM251.397 91.6C257.264 91.6 261.63 89.6667 264.497 85.8C267.43 81.8667 268.897 76.6333 268.897 70.1C268.897 65.6333 268.23 61.8 266.897 58.6C265.63 55.3333 263.697 52.8 261.097 51C258.564 49.2 255.33 48.3 251.397 48.3C247.464 48.3 244.164 49.2 241.497 51C238.897 52.8 236.964 55.3333 235.697 58.6C234.43 61.8667 233.797 65.7 233.797 70.1C233.797 76.5667 235.264 81.7667 238.197 85.7C241.13 89.6333 245.53 91.6 251.397 91.6ZM288.622 95V45.1H291.422C292.289 45.1 292.789 45.5667 292.922 46.5L293.422 53.9C295.689 51.0333 298.322 48.7333 301.322 47C304.322 45.2 307.655 44.3 311.322 44.3C315.055 44.3 318.122 45.0667 320.522 46.6C322.989 48.1333 324.822 50.3333 326.022 53.2C327.289 56 327.922 59.3 327.922 63.1V95H322.922V63.1C322.922 58.4333 321.855 54.8333 319.722 52.3C317.655 49.7 314.422 48.4 310.022 48.4C306.822 48.4 303.822 49.2333 301.022 50.9C298.289 52.5 295.822 54.7667 293.622 57.7V95H288.622ZM280.922 95V92.7C280.922 92.3 281.022 92 281.222 91.8C281.422 91.5333 281.689 91.4 282.022 91.4L289.622 90.5L290.222 95H280.922ZM292.022 95L292.622 90.5L300.222 91.4C300.555 91.4 300.822 91.5333 301.022 91.8C301.222 92 301.322 92.3 301.322 92.7V95H292.022ZM326.322 95L326.922 90.5L334.522 91.4C334.855 91.4 335.122 91.5333 335.322 91.8C335.522 92 335.622 92.3 335.622 92.7V95H326.322ZM290.222 45.1L289.622 49.6L282.022 48.7C281.689 48.6333 281.422 48.5 281.222 48.3C281.022 48.1 280.922 47.8 280.922 47.4V45.1H290.222ZM364.095 95.6C359.361 95.6 355.261 94.5333 351.795 92.4C348.395 90.2 345.761 87.1 343.895 83.1C342.095 79.1 341.195 74.4 341.195 69C341.195 64.2667 342.095 60.0333 343.895 56.3C345.695 52.5667 348.261 49.6333 351.595 47.5C354.995 45.3667 359.028 44.3 363.695 44.3C367.628 44.3 371.061 45.2 373.995 47C376.928 48.8 379.228 51.3333 380.895 54.6C382.561 57.8 383.395 61.6667 383.395 66.2C383.395 67 383.295 67.5333 383.095 67.8C382.895 68.0667 382.528 68.2 381.995 68.2H346.195C346.195 68.5333 346.195 68.8667 346.195 69.2C346.195 69.4667 346.195 69.8 346.195 70.2C346.328 76.8667 347.995 82.1 351.195 85.9C354.395 89.7 358.795 91.6 364.395 91.6C366.795 91.6 369.028 91.2333 371.095 90.5C373.228 89.7 375.061 88.8667 376.595 88C378.195 87.1333 379.295 86.6 379.895 86.4C380.428 86.3333 380.861 86.4667 381.195 86.8L382.495 88.5C381.361 89.9 379.795 91.1333 377.795 92.2C375.795 93.2667 373.561 94.1 371.095 94.7C368.695 95.3 366.361 95.6 364.095 95.6ZM346.395 65H378.795C378.795 59.8667 377.428 55.7667 374.695 52.7C372.028 49.6333 368.395 48.1 363.795 48.1C358.728 48.1 354.695 49.6333 351.695 52.7C348.761 55.7 346.995 59.8 346.395 65ZM425.066 95V24.1H430.566V57.1H474.466V24.1H479.966V95H474.466V61.2H430.566V95H425.066ZM417.366 95V92.7C417.366 92.3 417.466 92 417.666 91.8C417.866 91.5333 418.133 91.4 418.466 91.4L426.066 90.5L426.666 95H417.366ZM428.866 95L429.466 90.5L437.066 91.4C437.4 91.4 437.666 91.5333 437.866 91.8C438.133 92 438.266 92.3 438.266 92.7V95H428.866ZM426.666 24.1L426.066 28.6L418.466 27.7C418.133 27.6333 417.866 27.5 417.666 27.3C417.466 27.1 417.366 26.8 417.366 26.4V24.1H426.666ZM438.266 24.1V26.4C438.266 26.8 438.133 27.1 437.866 27.3C437.666 27.5 437.4 27.6333 437.066 27.7L429.466 28.6L428.866 24.1H438.266ZM466.666 95V92.7C466.666 92.3 466.766 92 466.966 91.8C467.233 91.5333 467.533 91.4 467.866 91.4L475.466 90.5L476.066 95H466.666ZM478.266 95L478.866 90.5L486.466 91.4C486.8 91.4 487.066 91.5333 487.266 91.8C487.533 92 487.666 92.3 487.666 92.7V95H478.266ZM476.066 24.1L475.466 28.6L467.866 27.7C467.533 27.6333 467.233 27.5 466.966 27.3C466.766 27.1 466.666 26.8 466.666 26.4V24.1H476.066ZM487.666 24.1V26.4C487.666 26.8 487.533 27.1 487.266 27.3C487.066 27.5 486.8 27.6333 486.466 27.7L478.866 28.6L478.266 24.1H487.666ZM517.998 44.3C522.865 44.3 526.965 45.4 530.298 47.6C533.698 49.7333 536.265 52.7333 537.998 56.6C539.798 60.4 540.698 64.8667 540.698 70C540.698 75.1333 539.798 79.6333 537.998 83.5C536.265 87.3 533.698 90.2667 530.298 92.4C526.965 94.5333 522.865 95.6 517.998 95.6C513.198 95.6 509.098 94.5333 505.698 92.4C502.298 90.2667 499.698 87.2667 497.898 83.4C496.098 79.5333 495.198 75.0667 495.198 70C495.198 64.9333 496.098 60.4667 497.898 56.6C499.698 52.7333 502.298 49.7333 505.698 47.6C509.098 45.4 513.198 44.3 517.998 44.3ZM517.998 91.6C523.865 91.6 528.232 89.6667 531.098 85.8C534.032 81.8667 535.498 76.6333 535.498 70.1C535.498 65.6333 534.832 61.8 533.498 58.6C532.232 55.3333 530.298 52.8 527.698 51C525.165 49.2 521.932 48.3 517.998 48.3C514.065 48.3 510.765 49.2 508.098 51C505.498 52.8 503.565 55.3333 502.298 58.6C501.032 61.8667 500.398 65.7 500.398 70.1C500.398 76.5667 501.865 81.7667 504.798 85.7C507.732 89.6333 512.132 91.6 517.998 91.6ZM555.223 95V45.1H558.023C558.89 45.1 559.39 45.5667 559.523 46.5L560.023 53.7C561.89 50.9 564.057 48.6333 566.523 46.9C569.057 45.1667 571.89 44.3 575.023 44.3C578.757 44.3 581.69 45.4 583.823 47.6C586.023 49.7333 587.49 52.7333 588.223 56.6C589.29 52.5333 591.257 49.4667 594.123 47.4C597.057 45.3333 600.39 44.3 604.123 44.3C609.257 44.3 613.19 46 615.923 49.4C618.723 52.7333 620.123 57.3 620.123 63.1V95H615.023V63.1C615.023 58.3 613.99 54.6667 611.923 52.2C609.857 49.6667 606.89 48.4 603.023 48.4C599.357 48.4 596.257 49.7 593.723 52.3C591.257 54.9 590.023 58.5 590.023 63.1V95H584.923V63.1C584.923 58.4333 583.99 54.8333 582.123 52.3C580.257 49.7 577.457 48.4 573.723 48.4C571.057 48.4 568.59 49.2 566.323 50.8C564.057 52.4 562.023 54.6 560.223 57.4V95H555.223ZM547.523 95V92.7C547.523 92.3 547.623 92 547.823 91.8C548.023 91.5333 548.29 91.4 548.623 91.4L556.223 90.5L556.823 95H547.523ZM558.623 95L559.223 90.5L566.823 91.4C567.157 91.4 567.423 91.5333 567.623 91.8C567.823 92 567.923 92.3 567.923 92.7V95H558.623ZM588.323 95L588.923 90.5L596.523 91.4C596.857 91.4 597.123 91.5333 597.323 91.8C597.59 92 597.723 92.3 597.723 92.7V95H588.323ZM556.823 45.1L556.223 49.6L548.623 48.7C548.29 48.6333 548.023 48.5 547.823 48.3C547.623 48.1 547.523 47.8 547.523 47.4V45.1H556.823ZM618.423 95L619.023 90.5L626.623 91.4C626.957 91.4 627.223 91.5333 627.423 91.8C627.69 92 627.823 92.3 627.823 92.7V95H618.423ZM656.184 95.6C651.451 95.6 647.351 94.5333 643.884 92.4C640.484 90.2 637.851 87.1 635.984 83.1C634.184 79.1 633.284 74.4 633.284 69C633.284 64.2667 634.184 60.0333 635.984 56.3C637.784 52.5667 640.351 49.6333 643.684 47.5C647.084 45.3667 651.118 44.3 655.784 44.3C659.718 44.3 663.151 45.2 666.084 47C669.018 48.8 671.318 51.3333 672.984 54.6C674.651 57.8 675.484 61.6667 675.484 66.2C675.484 67 675.384 67.5333 675.184 67.8C674.984 68.0667 674.618 68.2 674.084 68.2H638.284C638.284 68.5333 638.284 68.8667 638.284 69.2C638.284 69.4667 638.284 69.8 638.284 70.2C638.418 76.8667 640.084 82.1 643.284 85.9C646.484 89.7 650.884 91.6 656.484 91.6C658.884 91.6 661.118 91.2333 663.184 90.5C665.318 89.7 667.151 88.8667 668.684 88C670.284 87.1333 671.384 86.6 671.984 86.4C672.518 86.3333 672.951 86.4667 673.284 86.8L674.584 88.5C673.451 89.9 671.884 91.1333 669.884 92.2C667.884 93.2667 665.651 94.1 663.184 94.7C660.784 95.3 658.451 95.6 656.184 95.6ZM638.484 65H670.884C670.884 59.8667 669.518 55.7667 666.784 52.7C664.118 49.6333 660.484 48.1 655.884 48.1C650.818 48.1 646.784 49.6333 643.784 52.7C640.851 55.7 639.084 59.8 638.484 65Z" fill="url(#paint0_linear_325_123)"/>
<defs>
<linearGradient id="paint0_linear_325_123" x1="442.196" y1="88.5217" x2="446.916" y2="40.0782" gradientUnits="userSpaceOnUse">
<stop stop-color="#33A3FF"/>
<stop offset="1" stop-color="#00CC66"/>
</linearGradient>
</defs>
</svg>
